<?xml version="1.0" encoding="UTF-8"?><svg xmlns="http://www.w3.org/2000/svg" viewBox="0 0 1261.58 898.03"><g id="a"/><g id="b"><g id="c"><path d="M1253.28,44.9c-.55-1.17-1.74-1.89-3.03-1.89h-32.92c-1.42,0-2.69-.89-3.16-2.22-2.91-8.27-15.82-36.83-55.3-37.59-1.04-.02-2.04,.46-2.68,1.28-2.14,2.74-6.9,9.61-8.58,18.33-.29,1.48-1.8,2.68-3.31,2.68h-5.29c-1.86,0-3.36,1.5-3.36,3.36v9.22c0,1.86-1.5,3.36-3.36,3.36H554.15c-1.86,0-3.36-1.5-3.36-3.36v-2.84c0-1.86-1.5-3.36-3.36-3.36H273.4c-1.28,0-2.44-.72-3.01-1.87l-13.98-28.14c-.57-1.14-1.73-1.87-3.01-1.87h-11.61c-1.32,0-2.52,.77-3.06,1.98l-12.62,27.93c-.54,1.19-1.71,1.96-3.02,1.98-8.23,.12-38.19,1.55-51.16,15.9-15.13,16.73-35.29,5.62-41.78-1.59-6.48-7.17-43.21-9.57-31.69,39.87,11.52,49.37,8.64,52.56-1.45,78.04l-18.64,42.92c-.04,.09-.08,.17-.13,.26-1.43,2.62-24.77,44.55-56.18,38.39-.91-.18-1.84-.02-2.6,.51-5.49,3.78-26.34,20.2,.67,35.54,.36,.2,.75,.34,1.15,.4,9.96,1.49,140.43,23.13,100.25,127.34L22.12,678.75h0s-33.96,59.82-17.72,164.85c.25,1.63,1.65,2.83,3.3,2.84,2.13,.02,3.7,1.99,3.25,4.07-.37,1.74-.59,3.68-.59,5.9,0,20.51,15.03,37.16,33.61,37.16,11.61,0,21.77-6.58,27.79-16.53,.66-1.09,1.89-1.71,3.17-1.59l239.57,22.29c21.77,2.71,20.58-14.71,20.58-14.71v-32.16h-.1l.09-2.81c0-.29-.02-.58-.09-.86-.77-3.31-5.67-26.39-1.71-63.06,.01-.13,.04-.27,.07-.4l51.74-227.43c.03-.15,.06-.29,.07-.44,.35-4.03,7.17-57.01,97.35-64.87,.06,0,.11,0,.17-.01,3.52-.12,92.09-3.64,212.92-3.64,34,0,30.35-13.36,30.35-24.36,0-41.39-26.35-179.36,153.65-179.36h232.09c1.43,0,2.71-.91,3.18-2.26l5.61-16.21c.47-1.35,1.74-2.26,3.18-2.26h82.12c1.86,0,3.36-1.5,3.36-3.36v-122.34c0-1.86,1.5-3.36,3.36-3.36h36.22c1.35,0,2.56-.8,3.09-2.03,3.99-9.38,19.02-49.62,1.5-86.9ZM116.51,75.13c-6.06,0-10.99-5.43-10.99-12.14s4.93-12.17,10.99-12.17,11.04,5.43,11.04,12.17-4.97,12.14-11.04,12.14ZM43.95,880.52c-12.02,0-21.83-10.83-21.83-24.13,0-2.57,.39-5.04,1.07-7.37,.43-1.46,1.75-2.48,3.27-2.47l35.11,.28c1.52,.01,2.82,1.04,3.23,2.5,.62,2.23,.96,4.59,.96,7.05,0,13.31-9.76,24.13-21.81,24.13ZM635.92,297.01l.61-.08,.83-.12s.51,.63,.64,.69c.13,.06,.17,.61,.17,.61l-.48,.48-1.23-.02-.28-.95-.38-.17,.11-.44Zm-32.29-11.39l.82-.33,2-1.55,.86-.25,.18,.17-1.9,2.02-1.24,.78-.77,.37-.62-.42,.67-.81Zm-190.33-19.78l.2,.52,.57-.63,.89-.03,.33,.58-.56,.67,.26,.3-.25,.78-.52,.17s-.34,.04-.34-.08c0-.12,.52-1,.52-1l-.65-.19-.11,.56-.27,.26-.61-.84-.22-.95,.77-.09Zm-9.8,125.31h-1.23l-.23-.45-.26-.55,1.26-.07,.51,.57-.05,.49Zm2.96,.09l-1.73-.04-.64-.6-.33-.54,.45-.26,1.38,.76,1.19,.42-.33,.26Zm5.64,11.44l-.51-.45s-.29-.55-.3-.7l-.03-.83,.18-.04,.72,1.18,.49,.72-.55,.11Zm1.42-3.9l-.59-.2-.32-.36-.71-.87v-.46l.38-.07,1.04,.74,.39,.67-.2,.56Zm148.81,59.34l-1.58,2.55-.69,2.55-.06,1.98,.41,2.33,1.07,2.71,.25,1.97,.08,.55-.34,.1-.3-2.7-1.13-2.71-.3-2.67,.48-3.16,1.18-2.66,1.26-2.11,1.16-1.39,.25,.08-1.74,2.58Zm120.48,14.21l-1.58,.61-.88,.49-.35-.33,.92-.28,.49-.11,.53-.91,.87-.64,.5,.17,.65,.1,.17,.4-1.31,.5Zm8.34-8.16l-.35,.66-.87,2.56-1.37,1.52-1.98,1.67-1.02,.83-.47-.39,.94-.62,1.27-.78,1.61-1.65,1.17-2.04,.5-1.77,.34-1.09,.27-.19-.02,1.3Zm14.92-87.82l-1.27,.63-1.05,.96-.42,.48-.4-.05,.96-.99,1.17-1.02,.58-.27,.04-.77-.32-2.33-.58-.88-.27-.7,.27-.1,1.11,2.06,.21,1.69-.02,1.3Zm17.01-58.49l-.82,.42-.45-.33,.84-1.03,.61-.02,.72,.54-.9,.42Zm3.61-.2l-1.48,.09,.17-.22,.82-.29,.15-.66,.39,.03,.42,.86-.47,.19Zm-.53-24.4l-.71-1.06,.57-.6,.54,.38,.25,.92-.64,.36Zm3.03-3.58s-.07,.65-.07,.77c0,.12-.49,.11-.49,.11l-.7-.69,.5-.88,.76-.3,.33,.67-.33,.32Zm4.82-4.5l-.73,.27-1.26,1.21-1.78,2.15-.49,.02c-.25,0-.4-.79-.4-.79l-.68,.08-.35,.57-.91,.58-.35,.57,.63,.53-.18,.25-.15,1.05-.74-.04-.02-.62-.14-.49-.55,.14-.72-1.21-.79,.52,.51,.54,.14,.43-.29,.5,.16,1.17,.08,.61-.58,1.01-1.1,.22-.09,1.11-2,1.24-.49,.2-.63-.53-1.13,1.39,.41,1.22-.54,.51v1.67l-.36,2.4-.13,.43-.38,1.27-.32,.42,.22,.18,1.15,1.65-.86,2-.11,.56,.77,.96,.42-.32,.68-.02,.89,.96,1.55,2.23,1.36,.14,.85-.4,.66-.7-.34-1.04-.82-.59-.54,.33-.39-.48,.18-.19,.8-.09,.69,.29,.77,.9,.41,1.1,.15,.92-1.58,.61-1.45,.79-1.42,1.77-.72,.58v-.37l.89-.58,.16-.68-.35-1.16-1.09,.59-.29,.56,.21,.86-.78,.41-.19,.15-1.09,.62-.49-.05-.41,.69-.9,.77-1.1,.41-.33,.1-2.64,1.42-1.96,.49-1.03,.59-.32-.24-.71,.82-1.32,1.28-1.85,1.36-.39-.08,.32,.63-.72,.7,.14,.49,.49-.14,.54-.51,.83-1.01,.42-.26,.62,.23,.86,.03,2.97-1.58,1.08-1.08,.48-.57,1.62,.56-1.25,1.4-1.44,1.16-2.65,2.12-.97,.4-2.19,.81-1.53,.48-.45-.19-.2,.04v.42l-.79,.76-.42,.38,.19,.18,1.04-.16,.42-.32,.66,1.27,.18,3.57,.26,.42-.36,2.11-1.09,2.5-1,1.57-.25,1.86-.77,.95h-.31l-.16-1.03,.3-.38-.08-.55-1.55-.2-1.88-.8-1.27-1.07-.44-.84-.2-.19-.16,.81,.84,1.33,.87,.34,.78,1.33,.73,1.76,1.38,.88,.36-.2,.95,2.78,.09,.27-.03,1.86-.72,1.56,.2,.21-.25,1.24-1.07,1.48-.1,1.75,.22,1.29-.64,1.92-.8,.76-.62-1.75,.1-2.08,.55-1.61,.25-1.19-.08-.74-.27-.11-.52-.19-1.28-1.55-.61,.33-1.48-.14-1.03-1.26,.08-1.3,.6-.51-.64-.66-.41,.75-.18,.07-.17-1.35,.79-.4-.25-2.09-.68-.1-.14-.43,.45-1.43,.53-.63-.2-.36-.72,.64-.72,.52s-.17,.56-.16,.81-.53,.88-.53,.88l.51,.48,.09,.8-.43,2.05,.87,2.07,.95,.77,.02,.68,.58,.78-.34,.81-.8-.1-1.18-.33-1.64,.08-.07,.25,1.14,.33,1.86,.3,.85,.77,1.22,.11,.35,.45-.11,1.79,.54,.4-.16,.74,.48,.29-.07,.53h-1.03l.05,.61,.89,.56,.06,.54,.7,.66,.22,.96-.96,.56,.62,.55,2.19-.71,1.45,2.25,.36,.34,.71,1.77,1.43,2.42,.95,.89,.27,.85-.92,.09,.32,.24-.07,1.61-.97,.52-.22,.81-.46,1.12-1.4,.66-.93-.09-.56-.04-.63-.47,.14,.49v.37l.75-.02,.32,.48-.66,2.43,1.6-.05,.27,.61,.83-.89,.49-.2-.7,1.38-1.11,1.89-.49,.02-.44-.17-1.04,.28-1.94,.99-2.4,2.11-1.24,1.83-.66,2.49-.16,.93-1.78,.24-2.06,.58-.1,.31-2,2.15-.91,2.37-.11,2.41-.61,.33-.4,1.06-.92,.28-.76,1.38-1.01,1.08-.82,1.32-.61,.33-1.31,1.34-1.11,.1,.41,1.22-1.84,2.16-.79,.52-.21,.38,.21,.51-1.19,2.42,.22,.98-.5,1.62-.74,3.85,.37,2.39,.02,.34,.95,2.76,1.54,3.67,2.15,3.51,1.49,2.36,1.92,2.04,1.59,1.37,.65,1.09-.42,.51-.29,.5,1.2,2.8,1.14,1.07,1.05,2,1.43,2.17,1.83,3.09,.59,2.88,.33,4.55,.27,.67-.08,1.3-.91,.52,.15,.74-.22,.75,.15,.92,.21,.73-1.01,1.27-1.15,.59-1.48,.11-.53,.63-.91,.4-.5-.17-.44-.36-.16-1.1-.35-1.28-1.36-1.93-1.38-.82-1.48-.08-.29,.5-1.22-1.63-.29-1.35-1.03-1.51-.69-.41-.59,.82-.68-.1-.86-1.88-1.16-1.44-1.17-2-1.02-1.14-1.4-1.37,.77-.95,1.17-2.13-.08-.61-1.74-.31-.61,.27,.13,.24,1,.34-.5,1.74-.3,.19-.73-1.52-.55-1.83-.16-1.04,.5-1.8-.12-3.63-1.22-1.38-.53-1.15-1.99-.43-.75-.22-.65-.97-1.31-.57-.47-1.28-1.06-.34-.97-1.39-1.62-.5-1.13-.52-.99,.03-1.53,.36-.04,.74,.32,.36-.17,.44-1.17-.02-1.37,1.4-1.33,.78-1.48,.05-1.22,.53-.16-1.04-.64-.72-1.12-.4-.63-.53-3.13-1.38-2.92-.58-1.66,.3-2.27,.26-2.25,.87-1.32,.28-.26-.04-2.08,1.05-1.05-.09,1.02-.77v-.37l-1.26-2.24-.87-.22-.5,1.68-.46,1.06-.25-.05-1.05,.03-.39,.09-.08,.48-1.97,.06-.56-.29-.8-.1-2.56,.82-.69-.29-.93,1.63-.41,.31-.28,.21-.75,.7-.65,.76,.39,.67,1.18,.21,.21-.99,.71-.82,.55-.08,.16,1.04,.52,.72-.64,1.19-1.23,.04v.18l.7,.35-.05,.25-.87-.1-.4,1.06,1.26,.82,2.23,.24,1.33,1.01,.49-.02,.02,.55-.82,1.2-.44-.36-1.11,.04-.39-.54-1.56-.69s-1.3-.21-1.61-.2c-.31,0-.28-1.16-.28-1.16l-.26-.3-.42,.51-.79,.21,.08,.55-.29,.63,.8,.1-.3,.19-.82,1.32-1.28,.53-.25-.24,.85-.34-.34-1.1-.5-.35-.66,.58-.98,.28-.34,.94-1.34,.54-3.25-1.25-.64-.6,.48-.32,.29-.63-.7-.66-1.73-.07-.15-.86-.58-.91-1.24-.21-.67,.39-.7-.53s-.91,.34-1.16,.41c-.24,.07-.29,.56-.29,.56l1.07,.58,.98-.22,1.25,.39-.28,.81-1.24-.33-1.25-.39-1.4,.6-2.48-.35-3.99-1.23-3.08,.22-1.77,.64-.24,.06-2.14,.67-3.7,1.85-.35,.75-.96,.77-.78,.58-.48,.32-2.09,2.1-1.02,.83-1.99,1.3-2.13,.99-2.36,1.37-.66,.58-2.17,1.43-1.29,.29-1.41,2.14-1.54,.17-.35,.75,.89,.71-.49,2.11-.44,1.74-.38,1.49-.25,1.73,.34,.91,.76,2.63,.44,2.33,.71,1.03-.35,.57-1.15,.78-2.2-1.41-2.11-.36-.49,.2-1.24-.21-1.64-1.12-1.98-.37-2.94-1.2-.85-1.45-.57-2.45-1.26-.7-.27-.85,.24-.25,.08-1.3-.5-.23-.26-.36,.44-1.68-.64-.84-1.25-.45-1.35-1.62-1.44-2.48-1.63-.93,.04-.74-2.18-4.62-.36-1.59-.7-.72-.08-.55-2.34-1.96-1.02-1.14v-.43l-1.03-.77-2.6-.35-2.84-.16-1.2-.82-1.7,.73-1.34,.6-.82,1.26-.32,1.43-1.59,2.39-.89,.95-1-.34-.69-.41-.75-.22-1.51-.82v-.25l-.71-.72-2-.74-2.93-2.87-.92-1.76-.1-3.08-1.31-2.42-.22-1.04-.63-.35-.46-.79-1.94-.74-.51-.6-2.81-2.93-.53-1.22-1.81-.81-.61-1.65-1.02-1.08-.75-.16h-.37l-4.77-.45-6.38-.78-.37,3.84-5.92-.57-.62-.29-9.61-.72-4.71-.77-6.53-3.61-5.71-3.09-4.71-2.75-7.34-3.84-.2-.36,.11-.56,.97-.85-.39-.27-5.31-.2-7.55-.81-3.84-.43-.21-.67-.11-3.57-.16-1.23-1.04-1.57-.34-.85-1.53-1.55-1.17-1.75-1.05-.03-1.24-.27-.14-.37,.55-.26-.29-1.22-.58-.78-1.86-.25-1.5-.75-.46-.85-1.04-1.82-1.15-1.13-1.11,.04-1.5-.75-1.75-.62-1.61-.13-.96-1.02,.16-.75,.59-2.73,.28-.75-.03-.92-.63-.35-.22-1.1-.59-.97-1.36-2.18-.53-1.15-.61-1.77-.68-2.01-1.29-1.62-.22-1.1,.26-1.49h.43l.78-.66,.39-1.37-.4-1.04-1.05-.15-.77-.96-.85-1.39-.16-3.14,.22-.75,.22-.87,.16-.93-2.23-2.33-.03-.8,.12-.19,.08-1.24-.54-1.52-.92-1.82-1.1-1.69-.72-1.46,.32-1.43,.18-2.23,.64-1.19,.04-2.47-.47-1.34-.67-1.58-1.1-1.57,.27-1.24,.5-1.62,.67-.33,.11-.44,1.14-1.02,1.83-4.56-.03-2.84,.54-1.82,.17-.37-1.07-1.31,.42-2.29,.2-3.27,.7-1.13,2.93-4.9,2.3-5.25,1.74-5.42,1.15-2.5,1.11-3.86,.78-2.49,.77-1.01-.9-1.08,.09-1.11,1.04-.16,.57-1.56-1-.4,.02-1.42,1.66-.3-1.08-1.01-.64-2.69,.21-1.12-.1-3.02-.72-1.21,.75-3.6,.81,.16,.96,1.08,1.08,.95,1.26,.7,1.75,.75,1.18,.21,1.13,.52,1.31,.33,.86-.09-.03-.92,.48-.45,.79-.52,.14,.43,.14,.67-.86,.21-.1,.8,.7,.53,.46,.91,.27,.73,.55-.08,.05-.49-.39-.48-.22-1.23,.29-.69-.26-.55-.03-.86,.63-1.38-.46-.97-.98-1.82,.11-.31,.42-.32,1.68,.5,3.73,.93,3.29,.63,7.71,1.91,8.82,1.88,5.29,.6,5.79,1.46,.43,.05,.96,.17c6.82,5.44,13.3,12.95,12.59,21.54l-2.17,21.35c-.56,5.55,.47,11.15,3.01,16.28,11.25,22.71,46.28,85.35,92.02,89.39,0,0,12.71-8.26,.74-11.97,0,0-87.05-44.66-48.52-129.38l7.48,.44,.5,.17,9.53,.41,10.12,.17,7.09,.02,10.84-.13h.42l11.48-.35v-1.53l2.13,.13,.13,.71,.63,2.32,.64,.6,1.85-.06,.14,.55,2.41,.05,.03,.8,1.85-.06,.11-.5,.42-.45,.85-.27,.5,.35,1.11-.04,1.51,.94,2.06,.86,.93,.16,.17-.38,.55-.2,.22,1.1,1,.46,.18-.19,.49,.05,.03,.8,1,.34,1.17-.04,.61-.33,1.19-1.27,.98-.22,.33,.67,.2,.49h.37l.36-.33,3.38-.23,.72,1.15h.25l.26-.43,1.69-.2-.21,.88-1.48,.75-3.47,1.66-1.79,.82-1.14,1.02-.88,1.38-.82,1.51-.67,.33-1.66,1.96-.49,.08-1.43,1.16,.17,.21,.38,.32,1.11,.15,1.1-.28,2.79-1.32,1.09-.77,.79-.33,.76,.53-.42,.45-.7,1.19-.22,.75,.38,.23,.67-.39,.43-.08,1.06,.27,.26,.42,.43,.05,.19-.49,.38-.17,.27-.23,1.04-.34,1.33-.91v-.37l.23-.25,2.27-.44,.9-.77,1.64-.85,.05-.49,.7-1.13,.67-.33,.47-.69,.83-.89,1.63-.98,1.78-.24,.45,.42-.11,.37-1.4,.41-.52,1.19-.85,.34-.16,.93-.88,1.26-.09,.99,.31,.17,.36-.44,1.32-1.15,.51,.48,.86-.03,1.24,.33,.57,.41,.59,1.15,1.08,1.01,1.48-.11,.54-.39,.63,.47,.62,.17,.48-.32h.43l.6-.4,1.5-1.4,1.28-.47,2.52-.2,1.7-.79,.97-.52,.56,.04,.07,2.16,.19,.12,1.12,.27,.73-.21,2.32-.69,.42-.45,.56,.17,.08,2.65,1.27,1.13,.5,.23,.5,.35-.49,.14-.31-.11-1.42-.14-.79,.27-.86-.03-1.21,.59-.68,.02-2.23-.42-1.97,.12-.71,1.01-2.64,.33-.91,.34-.39,1.18-.48,.45-.19-.06-.57-.6-1.7,.98h-.25l-.45-.59-.31,.07-.69,1.69-.32,1.55-1.13,2.71-.21,.35-.39,.89-.66,.64-.74,1.81-.46,.94,.08,.68,.56,.11,.41-.75,.54-.33,.28-.87,.72-.7,1-1.57,1.52-2.45,.3-.19,.14,.37-.03,.86-1.03,2.62-.98,2.19-.15,1.24-.21,.99,.32,.48-.03,1.05-.71,.95-.16,.68,.29,1.35,.29,1.29-.52,1-.27,1.12-.33,1.18,.46,.91,.32,2.33,.67,1.71-.11,1.14,.13,.41,.16,2.09,.59,.97,.64,.66,.54,1.4,.34,.98,.12,.35,.33-.08,1.18,.3,.57,.35,.43-.14,.78-.76,1.06-.65,.38-.32,1.2-1.22,.09-1.05,.86-2,.3-2.29,.25-1.8-.61-1.83-1.19-2.43-1.43-2.24,.09-1.05,.11-.31,.28-.93-.2-.43-.3-1.78,.57-1.56,.36-2.35-.34-.91v-.43l.84-.21,.21-.99-.26-.3,.05-.37,.65-.76,1.03-.46,.32-1.61,.73-.33,.32,.3-.22,.93-.46,.94,.05,1.6,.25,.05,1.33-.84-.19-2.09-.14-.61,.1-.8,.53-.7,.98-.15,.98-.34-.19-.3-.81-.16-.37-.11-.17-1.35,1.08-.9,1.09-.71,1.2,.82,.38,.17,.24-.25,1.05-.03,2.14,1.23,1.74,.5,.99-.03,.52,.97,.95,.83-.04,.62-.62-.1-.3,.32,.33,.79,.5,.29,.64,.84,.25,3.82-.9,.65-.21,.99-.27,1.3-1.28,.53s-.07,1.67-.12,1.92c-.05,.25,.95,.77,.95,.77l.56,.23,.42-.26,1-1.45,.68-1.93,1.46-.72,.6-.45,1.01,.65,.96,1.2,.97,3.42,1.33,3.1,.24,3.63-.73,.39-.31-.05-.07-.24-.41-.22-.55,1.17-.04,1.36-.41,.14-.59,.63,.15,1.92-.74,.69-.76,1.44-.04,.56-.05,.23,.44,.11,.92,.49,1,.52,1.96-.31,1.33,1.13,.8-.09,2.06-1.05,1.1-.22,1.22-.35,1.49-1.53,1.25-1.46,1.45-.91,2.27-1.62,.39,.03,1.56-1.2,.49-.2,2.02-2.21,.38-.21,.53-.45,.48-.45,.35-.63,.66-.45,.72-.7,.17-.62,.77-1.07,.42-.38-.07-.37-.53-1.15-.68-.04-.81-2.32,1.09-.71,1.65-.61,1.52-.54,1.23-.22,2.4-.14,.75,.47,.62,.04,.79-.52,.97-.46,1.97-.25,.78-.7,.64-1.25,.59-.76,.8-.03,.73-.45,.03-.86-.58-.78-.14-.55,.41-.81-.02-.55-.68,.02-.69-.29-.32-.42-.09-.98,2.15-2.17,.24-.32,.52-1.13,1.05-1.76,1-1.45,.77-.95,.9-.73,1.16-.51,2.08-.56,1.23,.02,1.71-.61,2.86-.88,.23-.16,9.92-2.89,.35-.13-.04-1.92,.53-.76,.38,.36,.25,.18,.23-.62h.34l.32-.19,.54-.06,.58,.14-.03-.99,.24-2.1,.93-1.82,.51-1.56-.77-.9-.07-2.28,.3-.38,.27-1.06-.08-.55-.12-1.85,.62-1.87,1-3.42,.75-1.63,.49-.02,.49,.05v.43l.53,.85,1.06,.21,.3-.32v-.37l1.49-1.16,.66-.7,.56,.04,2.31,.85,.75,.35,3.81,11.29,2.28-.07,.33,.73,.12,1.85,1.14,.83h.31l.06-.2-.2-.43,1.05-.1,.76,.78,.91,1.39,.02,.74-.74,1.81Zm-36.56,69.62c0,.12-.32,.47-.32,.47l-.45-.69-.08-.68-.46-.94,.7-.21,.31,.88s.31,1.04,.31,1.16Z"/></g></g></svg>